<svg width="120" height="48" viewBox="0 0 203 80" xmlns="http://www.w3.org/2000/svg">
  <path fill="#49225E" d="M111.077499,43 C108.818512,43 106.926839,44.4884488 106.339135,46.7211221 C105.310653,43.3630363 102.629254,43 101.527309,43 C100.406998,43 97.743964,43.3630363 96.6971163,46.7211221 C96.1094122,44.4884488 94.2361057,43 91.9587526,43 C89.1855243,43 87,44.960396 87,47.4653465 C87,48.5726073 87.2754863,49.4620462 87.6060698,50.4240924 L91.3710486,60.970297 C92.6382854,64.4735974 95.2094905,64.9818482 96.6236533,64.9818482 C98.8459091,64.9818482 100.590655,63.8564356 101.490577,61.859736 C102.390499,63.8745875 104.135245,65 106.357501,65 C107.771664,65 110.342869,64.4735974 111.610106,60.970297 L115.411816,50.3877888 L115.448548,50.2970297 C115.485279,50.169967 115.540376,50.0429043 115.577108,49.9158416 C115.779131,49.3168317 115.99952,48.6633663 115.99952,47.8283828 C116.036252,45.0330033 113.960922,43 111.077499,43 Z M112.569423,49.6411379 L108.855694,59.8468271 C108.407176,61.0897155 107.653666,62 106.236349,62 C104.908736,62 104.119345,61.2822757 103.74259,60.0393873 L101.517941,53.2472648 L101.464119,53.2472648 L99.2394696,60.0393873 C98.8447738,61.2822757 98.0553822,61.9824945 96.7457098,61.9824945 C95.3283931,61.9824945 94.574883,61.0722101 94.1263651,59.8293217 L90.4485179,49.6936543 C90.1435257,48.8358862 90,48.3107221 90,47.6980306 C90,46.7527352 90.8970359,46 92.1708268,46 C93.2293292,46 93.9828393,46.6827133 94.2160686,47.6805252 L96.7098284,55.7680525 L96.7636505,55.7680525 L99.2932917,47.8555799 C99.6341654,46.7177243 100.226209,46 101.5,46 C102.773791,46 103.365835,46.7002188 103.706708,47.8555799 L106.236349,55.7680525 L106.290172,55.7680525 L108.783931,47.6805252 C109.017161,46.6827133 109.770671,46 110.829173,46 C112.085023,46 113,46.7702407 113,48.0656455 C112.982059,48.5207877 112.766771,48.9934354 112.569423,49.6411379 Z" transform="translate(-87,-43)"/>
  <text x="30" y="52" font-family="Georgia, serif" font-size="22" font-weight="bold" fill="#49225E" letter-spacing="1">Gouda Giggles</text>
</svg>
